<?xml version="1.0" encoding="utf-8"?>
<!-- Generator: Adobe Illustrator 22.0.1, SVG Export Plug-In . SVG Version: 6.00 Build 0)  -->
<svg version="1.1" id="Layer_1" xmlns="http://www.w3.org/2000/svg" xmlns:xlink="http://www.w3.org/1999/xlink" x="0px" y="0px"
	 viewBox="0 0 159 153.8" style="enable-background:new 0 0 159 153.8;" xml:space="preserve">
<style type="text/css">
	.st0{fill-rule:evenodd;clip-rule:evenodd;fill:#E60000;}
</style>
<path class="st0" d="M109.8,5.9C95.8,9,85.2,21.4,85.2,36.3c0,0.3,0.1,0.7,0.1,1c22.1,4.7,33.3,19.6,33.3,39.3
	c0,22.1-18.1,40-40.2,40c-22.1,0-42.8-18.4-42.8-45.8c0-33.4,28.6-64.7,69.4-65.7c0.7,0,1.9,0,3.1,0.1C99.2,1.9,89.4,0,79.2,0
	C35.5,0,0,34.3,0,76.7c0,42.3,35.5,76.7,79.2,76.7c43.8,0,79.2-34.3,79.2-76.7C158.5,44.8,138.4,17.5,109.8,5.9L109.8,5.9z"/>
</svg>
